<svg width="83" height="32" viewBox="0 0 83 32" fill="none" xmlns="http://www.w3.org/2000/svg">
<circle cx="16.9409" cy="16" r="16" fill="#009381"/>
<path d="M26.5408 16.364V17.4815C26.507 18.5651 23.29 19.4794 18.9895 19.6825V24.728H14.926V19.6825C10.5916 19.4794 7.37468 18.5651 7.34082 17.4815V16.364H7.54399C8.49214 17.3799 12.3186 18.1587 16.9239 18.1587C21.5292 18.1587 25.3556 17.3799 26.3038 16.364H26.5408Z" fill="white"/>
<path d="M26.5408 15.2127V16.3302H26.3038C25.4911 15.4836 22.6128 14.7725 18.9556 14.6032V16.7704C18.3122 16.8042 17.6011 16.8042 16.9239 16.8042C16.2128 16.8042 15.5355 16.8042 14.8921 16.7704V14.6032C11.235 14.8063 8.35669 15.4836 7.54399 16.364H7.34082V15.2466C7.37468 14.163 10.5916 13.2487 14.8921 13.0455V10.9799H8.76304V8H25.0847V10.9799H18.9895V13.0455C23.29 13.2487 26.507 14.1291 26.5408 15.2127Z" fill="white"/>
<circle cx="41.5564" cy="16" r="16" fill="#F7931A"/>
<path fill-rule="evenodd" clip-rule="evenodd" d="M48.1664 13.7342C48.4555 11.7987 46.9817 10.7583 44.9666 10.0642L45.6203 7.44245L44.0238 7.04473L43.3873 9.59741C42.9682 9.49287 42.5373 9.39424 42.1091 9.29651L42.75 6.72701L41.1549 6.32928L40.5007 8.95015C40.1534 8.87106 39.8125 8.79288 39.4816 8.71061L39.4834 8.70243L37.2823 8.15289L36.8577 9.85741C36.8577 9.85741 38.0419 10.1288 38.0169 10.1456C38.6633 10.3069 38.7806 10.7347 38.7606 11.0738L38.016 14.0605C38.0605 14.0719 38.1183 14.0883 38.1819 14.1137L38.0137 14.0719L36.9695 18.2559C36.8904 18.4523 36.6899 18.7468 36.2381 18.635C36.254 18.6582 35.078 18.3455 35.078 18.3455L34.2856 20.1727L36.3631 20.6904C36.5975 20.7491 36.829 20.8095 37.058 20.8693C37.2062 20.9079 37.3543 20.9466 37.5005 20.9841L36.84 23.6363L38.4342 24.034L39.0888 21.4104C39.5238 21.5286 39.9466 21.6377 40.3603 21.7404L39.7084 24.3517L41.3044 24.7494L41.9649 22.1027C44.6865 22.6177 46.7335 22.4099 47.5941 19.9491C48.2882 17.9673 47.56 16.8241 46.128 16.0782C47.1709 15.8369 47.9568 15.151 48.1664 13.7342ZM44.5189 18.8472C44.0658 20.6661 41.2179 19.9135 39.916 19.5694C39.7994 19.5386 39.6952 19.5111 39.6062 19.489L40.4827 15.9759C40.5914 16.003 40.7242 16.0328 40.8747 16.0666C42.2216 16.3688 44.9814 16.9881 44.5189 18.8472ZM41.1457 14.4365C42.2321 14.7263 44.5999 15.358 45.0125 13.7056C45.4342 12.0152 43.1316 11.5057 42.0071 11.2569C41.8807 11.2289 41.7692 11.2043 41.6781 11.1816L40.8835 14.3679C40.9586 14.3866 41.0469 14.4102 41.1457 14.4365Z" fill="white"/>
<circle cx="66.1716" cy="16" r="16" fill="#E6E6EE"/>
<path d="M66.1691 4.36337L66.0129 4.89373V20.282L66.1691 20.4378L73.312 16.2155L66.1691 4.36337Z" fill="#B7B7B7"/>
<path d="M66.1695 4.36328L59.0264 16.2154L66.1695 20.4377V12.9686V4.36328Z" fill="#8C8C8C"/>
<path d="M66.1693 21.7902L66.0813 21.8975V27.379L66.1693 27.6359L73.3166 17.5701L66.1693 21.7902Z" fill="#3C3C3B"/>
<path d="M66.1695 27.6359V21.7902L59.0264 17.5701L66.1695 27.6359Z" fill="#8C8C8C"/>
<path d="M66.1692 20.4372L73.3121 16.2149L66.1692 12.9681V20.4372Z" fill="#161616"/>
<path d="M59.0264 16.2149L66.1695 20.4372V12.9681L59.0264 16.2149Z" fill="#383838"/>
</svg>
