<svg width="203" height="21" viewBox="0 0 203 21" fill="none" xmlns="http://www.w3.org/2000/svg">
<path d="M1.56 12.516L17.548 0.0559993H26.032L24.184 11.648H28.384L27.544 17.024H23.344L22.7 21H15L15.616 17.024H0.86L1.56 12.516ZM16.456 11.648L17.464 5.488L9.568 11.648H16.456ZM44.6336 21H36.8776L40.1816 0.168H56.6176C63.6456 0.168 65.8016 2.856 65.8016 6.468C65.8016 10.276 64.0376 14.476 55.5816 14.476H45.6696L44.6336 21ZM46.4816 9.268H54.7696C56.8696 9.268 57.6536 8.316 57.6536 7.056C57.6536 5.936 56.8696 5.376 55.3296 5.376H47.0976L46.4816 9.268ZM68.6191 0.168H76.3751L73.9951 15.036H87.9671L87.0431 21H65.3151L68.6191 0.168ZM107.382 12.432L104.946 5.236L100.606 12.432H107.382ZM110.266 21L109.118 17.64H97.4983L95.4823 21H87.5583L100.55 0.168H110.938L118.582 21H110.266ZM122.65 0.168H131.246L141.018 12.208L142.922 0.168H150.594L147.29 21H139.618L129.062 8.204L127.046 21H119.346L122.65 0.168ZM153.193 0.168H175.593L174.781 5.264H160.025L159.633 7.868H174.109L173.297 12.936H158.821L158.345 15.792H173.325L172.513 21H149.889L153.193 0.168ZM182.534 21L184.942 5.852H176.262L177.158 0.168H202.302L201.378 5.852H192.726L190.318 21H182.534Z" fill="white"/>
</svg>
