<svg width="110" height="24" viewBox="0 0 110 24" fill="none" xmlns="http://www.w3.org/2000/svg">
<path fill-rule="evenodd" clip-rule="evenodd" d="M28.0789 23.9999C34.6303 23.9999 39.9412 18.6274 39.9412 11.9999C39.9412 5.37252 34.6303 -6.10352e-05 28.0789 -6.10352e-05C25.1429 -6.10352e-05 22.456 1.07897 20.3846 2.86642C18.3132 1.07901 15.6264 3.8147e-06 12.6904 3.8147e-06C6.13906 3.8147e-06 0.828125 5.37259 0.828125 12C0.828125 18.6274 6.13906 24 12.6904 24C15.6264 24 18.3133 22.921 20.3847 21.1335C22.4561 22.9209 25.1429 23.9999 28.0789 23.9999Z" fill="#ED0006"/>
<path fill-rule="evenodd" clip-rule="evenodd" d="M20.3843 21.1325C22.9344 18.9315 24.5513 15.6566 24.5513 11.9998C24.5513 8.34296 22.9344 5.06818 20.3844 2.86716C22.4559 1.07922 25.1431 -0.000152588 28.0796 -0.000152588C34.631 -0.000152588 39.9419 5.37243 39.9419 11.9998C39.9419 18.6273 34.631 23.9998 28.0796 23.9998C25.1431 23.9998 22.4558 22.9205 20.3843 21.1325Z" fill="#F9A000"/>
<path fill-rule="evenodd" clip-rule="evenodd" d="M20.3853 21.1333C22.9359 18.9323 24.5533 15.6572 24.5533 11.9999C24.5533 8.34267 22.936 5.06757 20.3854 2.86655C17.8348 5.06757 16.2175 8.34271 16.2175 12C16.2175 15.6572 17.8348 18.9323 20.3853 21.1333Z" fill="#FF5E00"/>
<g clip-path="url(#clip0_64_1123)">
<path d="M86.9178 1.31885C82.2365 1.31885 78.0528 3.74563 78.0528 8.22829C78.0528 13.3696 85.4724 13.7247 85.4724 16.3079C85.4724 17.3956 84.2264 18.369 82.0973 18.369C79.0765 18.369 76.8186 17.0088 76.8186 17.0088L75.8524 21.533C75.8524 21.533 78.4534 22.6821 81.9065 22.6821C87.0247 22.6821 91.0527 20.1365 91.0527 15.5766C91.0527 10.1436 83.602 9.79907 83.602 7.40198C83.602 6.54993 84.625 5.61671 86.7475 5.61671C89.1426 5.61671 91.0962 6.60603 91.0962 6.60603L92.042 2.23689C92.042 2.23689 89.9155 1.31885 86.9172 1.31885H86.9178ZM44.0864 1.64884L43.9729 2.30817C43.9729 2.30817 45.9423 2.66853 47.7164 3.38792C50.0006 4.21225 50.163 4.69272 50.5477 6.18298L54.7393 22.3415H60.3585L69.0149 1.64884H63.409L57.8466 15.7179L55.5769 3.79183C55.369 2.42697 54.3143 1.64818 53.024 1.64818H44.0871L44.0864 1.64884ZM71.2694 1.64884L66.8719 22.3415H72.2179L76.5995 1.64884H71.2694ZM101.085 1.64884C99.7962 1.64884 99.1131 2.33919 98.6122 3.545L90.7801 22.3415H96.386L97.4704 19.2086H104.3L104.959 22.3415H109.906L105.591 1.64884H101.085ZM101.814 7.23962L103.476 15.0044H99.0247L101.815 7.23962H101.814Z" fill="#1434CB"/>
</g>
<defs>
<clipPath id="clip0_64_1123">
<rect width="65.999" height="21.4286" fill="white" transform="translate(43.9419 1.28571)"/>
</clipPath>
</defs>
</svg>
