<svg width="82" height="32" viewBox="0 0 82 32" fill="none" xmlns="http://www.w3.org/2000/svg">
<circle cx="16.4409" cy="16" r="16" fill="#009381"/>
<path d="M26.0408 16.364V17.4815C26.007 18.5651 22.79 19.4794 18.4895 19.6825V24.728H14.426V19.6825C10.0916 19.4794 6.87468 18.5651 6.84082 17.4815V16.364H7.04399C7.99214 17.3799 11.8186 18.1587 16.4239 18.1587C21.0292 18.1587 24.8556 17.3799 25.8038 16.364H26.0408Z" fill="white"/>
<path d="M26.0408 15.2127V16.3302H25.8038C24.9911 15.4836 22.1128 14.7725 18.4556 14.6032V16.7704C17.8122 16.8042 17.1011 16.8042 16.4239 16.8042C15.7128 16.8042 15.0355 16.8042 14.3921 16.7704V14.6032C10.735 14.8063 7.85669 15.4836 7.04399 16.364H6.84082V15.2466C6.87468 14.163 10.0916 13.2487 14.3921 13.0455V10.9799H8.26304V8H24.5847V10.9799H18.4895V13.0455C22.79 13.2487 26.007 14.1291 26.0408 15.2127Z" fill="white"/>
<circle cx="41.0562" cy="16" r="16" fill="#F7931A"/>
<path fill-rule="evenodd" clip-rule="evenodd" d="M47.6659 13.734C47.955 11.7986 46.4813 10.7581 44.4661 10.064L45.1198 7.44227L43.5233 7.04454L42.8869 9.59723C42.4677 9.49269 42.0368 9.39405 41.6086 9.29633L42.2495 6.72682L40.6544 6.3291L40.0002 8.94997C39.6529 8.87088 39.312 8.7927 38.9811 8.71043L38.9829 8.70224L36.7818 8.15271L36.3572 9.85723C36.3572 9.85723 37.5414 10.1286 37.5164 10.1454C38.1628 10.3068 38.2801 10.7345 38.2601 11.0736L37.5155 14.0603C37.56 14.0717 37.6178 14.0881 37.6814 14.1135L37.5132 14.0717L36.469 18.2557C36.3899 18.4521 36.1895 18.7466 35.7376 18.6348C35.7535 18.658 34.5775 18.3453 34.5775 18.3453L33.7852 20.1725L35.8626 20.6902C36.097 20.749 36.3285 20.8094 36.5575 20.8691C36.7057 20.9078 36.8538 20.9464 37 20.9839L36.3395 23.6361L37.9337 24.0338L38.5883 21.4102C39.0233 21.5284 39.4461 21.6375 39.8598 21.7402L39.2079 24.3515L40.8039 24.7493L41.4645 22.1025C44.1861 22.6175 46.2331 22.4098 47.0936 19.9489C47.7877 17.9671 47.0595 16.8239 45.6276 16.078C46.6704 15.8367 47.4563 15.1508 47.6659 13.734ZM44.0184 18.847C43.5653 20.6659 40.7174 19.9133 39.4155 19.5693C39.2989 19.5385 39.1947 19.5109 39.1057 19.4888L39.9822 15.9757C40.0909 16.0028 40.2238 16.0326 40.3742 16.0664C41.7211 16.3686 44.4809 16.9879 44.0184 18.847ZM40.6453 14.4363C41.7316 14.7261 44.0995 15.3578 44.512 13.7054C44.9337 12.015 42.6312 11.5056 41.5066 11.2567C41.3802 11.2288 41.2687 11.2041 41.1776 11.1814L40.383 14.3677C40.4582 14.3864 40.5464 14.41 40.6453 14.4363Z" fill="white"/>
<circle cx="65.6719" cy="16" r="16" fill="#E6E6EE"/>
<path d="M65.6693 4.36328L65.5132 4.89364V20.2819L65.6693 20.4377L72.8122 16.2154L65.6693 4.36328Z" fill="#B7B7B7"/>
<path d="M65.6695 4.36328L58.5264 16.2154L65.6695 20.4377V12.9686V4.36328Z" fill="#8C8C8C"/>
<path d="M65.67 21.7904L65.582 21.8977V27.3792L65.67 27.6361L72.8173 17.5703L65.67 21.7904Z" fill="#3C3C3B"/>
<path d="M65.6695 27.6361V21.7904L58.5264 17.5703L65.6695 27.6361Z" fill="#8C8C8C"/>
<path d="M65.6694 20.4373L72.8124 16.2151L65.6694 12.9683V20.4373Z" fill="#161616"/>
<path d="M58.5264 16.2151L65.6695 20.4373V12.9683L58.5264 16.2151Z" fill="#383838"/>
</svg>
