<svg width="100" height="100" viewBox="0 0 100 100" fill="none" xmlns="http://www.w3.org/2000/svg">
<g clip-path="url(#clip0_229_126)">
<rect width="100" height="100" rx="50" fill="#1D1D1D"/>
<path d="M23.56 51.516L39.548 39.056H48.032L46.184 50.648H50.384L49.544 56.024H45.344L44.7 60H37L37.616 56.024H22.86L23.56 51.516ZM38.456 50.648L39.464 44.488L31.568 50.648H38.456Z" fill="white"/>
<path d="M58.4305 60H50.6745L53.9785 39.168H70.4145C77.4425 39.168 79.5985 41.856 79.5985 45.468C79.5985 49.276 77.8345 53.476 69.3785 53.476H59.4665L58.4305 60ZM60.2785 48.268H68.5665C70.6665 48.268 71.4505 47.316 71.4505 46.056C71.4505 44.936 70.6665 44.376 69.1265 44.376H60.8945L60.2785 48.268Z" fill="#A8DA1A"/>
</g>
<defs>
<clipPath id="clip0_229_126">
<rect width="100" height="100" fill="white"/>
</clipPath>
</defs>
</svg>
