<svg width="110" height="24" viewBox="0 0 110 24" fill="none" xmlns="http://www.w3.org/2000/svg">
<path fill-rule="evenodd" clip-rule="evenodd" d="M27.5789 24C34.1303 24 39.4412 18.6274 39.4412 12C39.4412 5.37258 34.1303 0 27.5789 0C24.6429 0 21.956 1.07904 19.8846 2.86648C17.8132 1.07907 15.1264 6.48499e-05 12.1904 6.48499e-05C5.63906 6.48499e-05 0.328125 5.37265 0.328125 12.0001C0.328125 18.6275 5.63906 24.0001 12.1904 24.0001C15.1264 24.0001 17.8133 22.921 19.8847 21.1336C21.9561 22.921 24.6429 24 27.5789 24Z" fill="#ED0006"/>
<path fill-rule="evenodd" clip-rule="evenodd" d="M19.8843 21.1326C22.4344 18.9316 24.0513 15.6568 24.0513 11.9999C24.0513 8.34311 22.4344 5.06833 19.8844 2.86731C21.9559 1.07937 24.6431 0 27.5796 0C34.131 0 39.4419 5.37258 39.4419 12C39.4419 18.6274 34.131 24 27.5796 24C24.6431 24 21.9558 22.9206 19.8843 21.1326Z" fill="#F9A000"/>
<path fill-rule="evenodd" clip-rule="evenodd" d="M19.8856 21.1335C22.4362 18.9325 24.0535 15.6573 24.0535 12C24.0535 8.34282 22.4362 5.06772 19.8857 2.8667C17.3351 5.06772 15.7178 8.34286 15.7178 12.0001C15.7178 15.6574 17.3351 18.9325 19.8856 21.1335Z" fill="#FF5E00"/>
<g clip-path="url(#clip0_308_1123)">
<path d="M86.4181 1.31885C81.7368 1.31885 77.5531 3.74563 77.5531 8.22829C77.5531 13.3696 84.9727 13.7247 84.9727 16.3079C84.9727 17.3956 83.7266 18.369 81.5975 18.369C78.5767 18.369 76.3189 17.0088 76.3189 17.0088L75.3527 21.533C75.3527 21.533 77.9537 22.6821 81.4068 22.6821C86.525 22.6821 90.5529 20.1365 90.5529 15.5766C90.5529 10.1436 83.1023 9.79907 83.1023 7.40198C83.1023 6.54993 84.1253 5.61671 86.2478 5.61671C88.6429 5.61671 90.5965 6.60603 90.5965 6.60603L91.5422 2.23689C91.5422 2.23689 89.4157 1.31885 86.4174 1.31885H86.4181ZM43.5867 1.64884L43.4731 2.30817C43.4731 2.30817 45.4426 2.66853 47.2166 3.38792C49.5008 4.21225 49.6632 4.69272 50.048 6.18298L54.2396 22.3415H59.8587L68.5152 1.64884H62.9092L57.3468 15.7179L55.0771 3.79183C54.8692 2.42697 53.8145 1.64818 52.5243 1.64818H43.5873L43.5867 1.64884ZM70.7697 1.64884L66.3722 22.3415H71.7181L76.0998 1.64884H70.7697ZM100.585 1.64884C99.2965 1.64884 98.6134 2.33919 98.1124 3.545L90.2803 22.3415H95.8863L96.9707 19.2086H103.8L104.46 22.3415H109.406L105.091 1.64884H100.585ZM101.315 7.23962L102.977 15.0044H98.5249L101.315 7.23962H101.315Z" fill="#1434CB"/>
</g>
<defs>
<clipPath id="clip0_308_1123">
<rect width="65.999" height="21.4286" fill="white" transform="translate(43.4419 1.28564)"/>
</clipPath>
</defs>
</svg>
