<svg width="260" height="23" viewBox="0 0 260 23" fill="none" xmlns="http://www.w3.org/2000/svg">
<path d="M3.416 1.168H25.396L24.584 6.264H10.276L9.856 8.868H23.884L23.072 13.992H9.044L7.784 22H0.112L3.416 1.168ZM40.5219 22.392H39.2619C27.5579 22.392 25.2059 16.988 25.2059 13.068C25.2059 12.424 25.2339 11.696 25.3459 10.772C25.9059 6.992 27.9779 0.776 40.9699 0.776H42.2299C53.9899 0.776 56.3139 6.068 56.3139 9.96C56.3139 10.604 56.2859 11.416 56.1739 12.172C55.6139 16.036 53.6259 22.392 40.5219 22.392ZM48.2219 10.688C48.2219 8.588 46.7379 6.376 41.2499 6.376C35.2299 6.376 33.6339 9.036 33.4099 11.192C33.3259 11.724 33.3539 11.864 33.3539 12.2C33.3539 14.3 34.7259 16.764 40.2699 16.764C46.2339 16.764 47.7739 14.076 48.1379 11.78C48.1939 11.416 48.2219 11.052 48.2219 10.688ZM66.1275 9.82H75.1155C77.0195 9.82 77.7195 8.784 77.7195 7.804C77.7195 6.88 77.1875 6.236 75.5915 6.236H66.7155L66.1275 9.82ZM65.3435 14.86L64.2235 22H56.4675L59.7715 1.168H78.3355C83.7675 1.168 85.9795 3.156 85.9795 6.152C85.9795 9.428 83.1515 10.996 81.0235 11.5C83.2355 12.172 84.9155 13.656 84.4675 16.372L83.9355 19.648C83.7115 20.964 83.8795 21.524 83.9635 21.86L83.9355 22H76.0115C75.8995 21.804 75.8715 21.496 75.9835 20.796L76.3475 18.5C76.7115 16.12 75.8155 14.86 72.7075 14.86H65.3435ZM101.684 22H93.9284L97.2324 1.168H113.668C120.696 1.168 122.852 3.856 122.852 7.468C122.852 11.276 121.088 15.476 112.632 15.476H102.72L101.684 22ZM103.532 10.268H111.82C113.92 10.268 114.704 9.316 114.704 8.056C114.704 6.936 113.92 6.376 112.38 6.376H104.148L103.532 10.268ZM125.67 1.168H133.426L131.046 16.036H145.018L144.094 22H122.366L125.67 1.168ZM164.433 13.432L161.997 6.236L157.657 13.432H164.433ZM167.317 22L166.169 18.64H154.549L152.533 22H144.609L157.601 1.168H167.989L175.633 22H167.317ZM179.701 1.168H188.297L198.069 13.208L199.973 1.168H207.645L204.341 22H196.669L186.113 9.204L184.097 22H176.397L179.701 1.168ZM210.244 1.168H232.644L231.832 6.264H217.076L216.684 8.868H231.16L230.348 13.936H215.872L215.396 16.792H230.376L229.564 22H206.94L210.244 1.168ZM239.585 22L241.993 6.852H233.313L234.209 1.168H259.353L258.429 6.852H249.777L247.369 22H239.585Z" fill="white"/>
</svg>
