<svg width="24" height="24" viewBox="0 0 24 24" fill="none" xmlns="http://www.w3.org/2000/svg">
<path d="M17.1932 5.76807C16.5156 5.76807 16.064 6.32947 16.064 6.89087C16.064 7.56456 16.6286 8.01368 17.1932 8.01368C17.8707 8.01368 18.3224 7.45228 18.3224 6.89087C18.3224 6.21719 17.7578 5.76807 17.1932 5.76807Z" fill="white"/>
<path d="M12.1113 7.22754C9.51414 7.22754 7.36865 9.36087 7.36865 11.9433C7.36865 14.5258 9.51414 16.6591 12.1113 16.6591C14.7085 16.6591 16.854 14.5258 16.854 11.9433C16.854 9.36087 14.7085 7.22754 12.1113 7.22754ZM12.1113 14.9749C10.4175 14.9749 9.06246 13.6275 9.06246 11.9433C9.06246 10.2591 10.4175 8.91175 12.1113 8.91175C13.8051 8.91175 15.1602 10.2591 15.1602 11.9433C15.1602 13.6275 13.8051 14.9749 12.1113 14.9749Z" fill="white"/>
<path d="M15.8379 21.5994H8.15933C4.99756 21.5994 2.40039 19.017 2.40039 15.8731V8.12573C2.40039 4.98187 4.99756 2.39941 8.15933 2.39941H15.8379C18.9997 2.39941 21.5968 4.98187 21.5968 8.12573V15.7608C21.7098 19.017 19.1126 21.5994 15.8379 21.5994ZM8.15933 4.08362C5.90092 4.08362 4.20711 5.88012 4.20711 8.01345V15.6485C4.20711 17.8941 6.01384 19.5784 8.15933 19.5784H15.8379C18.0963 19.5784 19.7901 17.7819 19.7901 15.6485V8.12573C19.7901 5.88012 17.9834 4.19591 15.8379 4.19591H8.15933V4.08362Z" fill="white"/>
</svg>
