<svg width="40" height="24" viewBox="0 0 40 24" fill="none" xmlns="http://www.w3.org/2000/svg">
<path fill-rule="evenodd" clip-rule="evenodd" d="M28.0789 23.9999C34.6303 23.9999 39.9412 18.6274 39.9412 11.9999C39.9412 5.37252 34.6303 -6.10352e-05 28.0789 -6.10352e-05C25.1429 -6.10352e-05 22.456 1.07897 20.3846 2.86642C18.3132 1.07901 15.6264 3.8147e-06 12.6904 3.8147e-06C6.13906 3.8147e-06 0.828125 5.37259 0.828125 12C0.828125 18.6274 6.13906 24 12.6904 24C15.6264 24 18.3133 22.921 20.3847 21.1335C22.4561 22.9209 25.1429 23.9999 28.0789 23.9999Z" fill="#ED0006"/>
<path fill-rule="evenodd" clip-rule="evenodd" d="M20.3843 21.1325C22.9344 18.9315 24.5513 15.6566 24.5513 11.9998C24.5513 8.34296 22.9344 5.06818 20.3844 2.86716C22.4559 1.07922 25.1431 -0.000152588 28.0796 -0.000152588C34.631 -0.000152588 39.9419 5.37243 39.9419 11.9998C39.9419 18.6273 34.631 23.9998 28.0796 23.9998C25.1431 23.9998 22.4558 22.9205 20.3843 21.1325Z" fill="#F9A000"/>
<path fill-rule="evenodd" clip-rule="evenodd" d="M20.3853 21.1333C22.9359 18.9323 24.5533 15.6572 24.5533 11.9999C24.5533 8.34267 22.936 5.06757 20.3854 2.86655C17.8348 5.06757 16.2175 8.34271 16.2175 12C16.2175 15.6572 17.8348 18.9323 20.3853 21.1333Z" fill="#FF5E00"/>
</svg>
