<svg width="24" height="24" viewBox="0 0 24 24" fill="none" xmlns="http://www.w3.org/2000/svg">
<path d="M3.30582 10.7658C8.71746 8.25943 12.3261 6.6071 14.1317 5.80878C19.2869 3.52941 20.3582 3.13346 21.0564 3.12024C21.2099 3.11751 21.5533 3.15796 21.7757 3.34981C21.9635 3.5118 22.0152 3.73062 22.0399 3.88421C22.0646 4.03779 22.0954 4.38766 22.071 4.66104C21.7916 7.78132 20.5828 15.3534 19.9678 18.8482C19.7076 20.327 19.1952 20.8228 18.6992 20.8713C17.6211 20.9768 16.8025 20.114 15.7584 19.3864C14.1246 18.248 13.2016 17.5393 11.6157 16.4283C9.78286 15.1444 10.971 14.4388 12.0155 13.2855C12.2888 12.9837 17.0386 8.39124 17.1306 7.97462C17.1421 7.92252 17.1527 7.7283 17.0442 7.62574C16.9356 7.52319 16.7754 7.55826 16.6598 7.58615C16.496 7.62569 13.8859 9.45954 8.82962 13.0877C8.08876 13.6285 7.41772 13.892 6.81648 13.8782C6.15367 13.863 4.87868 13.4798 3.93086 13.1523C2.76831 12.7506 1.84435 12.5382 1.92481 11.856C1.96671 11.5006 2.42705 11.1372 3.30582 10.7658Z" fill="white"/>
</svg>
