<svg width="24" height="24" viewBox="0 0 24 24" fill="none" xmlns="http://www.w3.org/2000/svg">
<path d="M20.1705 10.2875C20.0665 10.2875 19.8584 10.2875 19.7544 10.2875C18.0901 10.2875 16.4259 9.4572 15.4897 8.00423V15.788C15.4897 19.0053 12.8893 21.5999 9.66478 21.5999C6.44025 21.5999 3.83984 19.0053 3.83984 15.788C3.83984 12.5707 6.44025 9.97612 9.66478 9.97612C9.76879 9.97612 9.87281 9.97612 9.97683 9.97612V12.7783C9.87281 12.7783 9.76879 12.7783 9.66478 12.7783C8.00051 12.7783 6.75232 14.1275 6.75232 15.6842C6.75232 17.241 8.10452 18.5902 9.66478 18.5902C11.329 18.5902 12.7853 17.3448 12.7853 15.6842V2.3999H15.4897C15.6978 4.89071 17.6741 6.75882 20.1705 6.96639V10.2875Z" fill="white"/>
</svg>
