<svg width="67" height="22" viewBox="0 0 67 22" fill="none" xmlns="http://www.w3.org/2000/svg">
<g clip-path="url(#clip0_64_1134)">
<path d="M43.9178 0.318848C39.2365 0.318848 35.0528 2.74563 35.0528 7.22829C35.0528 12.3696 42.4724 12.7247 42.4724 15.3079C42.4724 16.3956 41.2264 17.369 39.0973 17.369C36.0765 17.369 33.8186 16.0088 33.8186 16.0088L32.8524 20.533C32.8524 20.533 35.4534 21.6821 38.9065 21.6821C44.0247 21.6821 48.0527 19.1365 48.0527 14.5766C48.0527 9.14358 40.602 8.79907 40.602 6.40198C40.602 5.54993 41.625 4.61671 43.7475 4.61671C46.1426 4.61671 48.0962 5.60603 48.0962 5.60603L49.042 1.23689C49.042 1.23689 46.9155 0.318848 43.9172 0.318848H43.9178ZM1.08642 0.648843L0.9729 1.30817C0.9729 1.30817 2.94231 1.66853 4.71637 2.38792C7.00059 3.21225 7.16295 3.69272 7.54773 5.18298L11.7393 21.3415H17.3585L26.0149 0.648843H20.409L14.8466 14.7179L12.5769 2.79183C12.369 1.42697 11.3143 0.648183 10.024 0.648183H1.08708L1.08642 0.648843ZM28.2694 0.648843L23.8719 21.3415H29.2179L33.5995 0.648843H28.2694ZM58.0852 0.648843C56.7962 0.648843 56.1131 1.33919 55.6122 2.545L47.7801 21.3415H53.386L54.4704 18.2086H61.3L61.9593 21.3415H66.9059L62.5909 0.648843H58.0852ZM58.8145 6.23962L60.4763 14.0044H56.0247L58.8151 6.23962H58.8145Z" fill="#1434CB"/>
</g>
<defs>
<clipPath id="clip0_64_1134">
<rect width="65.999" height="21.4286" fill="white" transform="translate(0.941895 0.285706)"/>
</clipPath>
</defs>
</svg>
